<?xml version="1.0" encoding="UTF-8"?>
<svg xmlns="http://www.w3.org/2000/svg" xmlns:xlink="http://www.w3.org/1999/xlink" width="539pt" height="369pt" viewBox="0 0 539 369" version="1.1">
<g id="surface4622">
<rect x="0" y="0" width="539" height="369" style="fill:rgb(100%,100%,100%);fill-opacity:1;stroke:none;"/>
<path style=" stroke:none;fill-rule:nonzero;fill:rgb(97.254902%,46.27451%,42.745098%);fill-opacity:1;" d="M 269.5 184.5 L 269.5 36.898438 L 264.464844 36.984375 L 259.433594 37.242188 L 254.417969 37.671875 L 249.414062 38.273438 L 244.4375 39.042969 L 239.492188 39.984375 L 234.578125 41.089844 L 229.707031 42.367188 L 224.878906 43.804688 L 220.105469 45.410156 L 215.386719 47.175781 L 210.734375 49.101562 L 206.148438 51.1875 L 201.636719 53.425781 L 197.207031 55.816406 L 192.859375 58.359375 L 188.597656 61.046875 L 184.433594 63.878906 L 180.367188 66.851562 L 176.40625 69.960938 L 172.554688 73.203125 L 168.8125 76.574219 L 165.1875 80.074219 L 161.6875 83.691406 L 158.308594 87.429688 L 155.0625 91.28125 L 151.949219 95.238281 L 148.972656 99.300781 L 146.136719 103.460938 L 143.441406 107.71875 L 140.898438 112.0625 L 138.5 116.492188 L 136.257812 121.003906 L 134.167969 125.585938 L 132.238281 130.238281 L 130.464844 134.953125 L 128.855469 139.722656 L 127.410156 144.546875 L 126.128906 149.417969 L 125.015625 154.332031 L 124.070312 159.277344 L 123.296875 164.253906 L 122.691406 169.253906 L 122.253906 174.273438 L 121.992188 179.300781 L 121.898438 184.335938 L 121.980469 189.371094 L 122.234375 194.402344 L 122.65625 199.421875 L 123.25 204.421875 L 124.015625 209.402344 L 124.949219 214.347656 L 126.050781 219.265625 L 127.320312 224.136719 L 128.757812 228.964844 L 130.355469 233.742188 L 132.117188 238.460938 L 134.039062 243.113281 L 136.117188 247.703125 L 138.351562 252.214844 L 140.738281 256.652344 L 145.175781 254.164062 L 154.058594 249.1875 L 158.496094 246.699219 L 167.378906 241.722656 L 171.816406 239.234375 L 180.699219 234.257812 L 185.136719 231.773438 L 194.019531 226.796875 L 198.457031 224.308594 L 207.339844 219.332031 L 211.777344 216.84375 L 220.660156 211.867188 L 225.097656 209.378906 L 233.980469 204.402344 L 238.417969 201.914062 L 242.859375 199.429688 L 247.300781 196.941406 L 251.738281 194.453125 L 260.621094 189.476562 L 265.058594 186.988281 Z M 269.5 184.5 "/>
<path style=" stroke:none;fill-rule:nonzero;fill:rgb(0%,74.901961%,76.862745%);fill-opacity:1;" d="M 269.5 184.5 L 265.058594 186.988281 L 260.621094 189.476562 L 251.738281 194.453125 L 247.300781 196.941406 L 242.859375 199.429688 L 238.417969 201.914062 L 233.980469 204.402344 L 225.097656 209.378906 L 220.660156 211.867188 L 211.777344 216.84375 L 207.339844 219.332031 L 198.457031 224.308594 L 194.019531 226.796875 L 185.136719 231.773438 L 180.699219 234.257812 L 171.816406 239.234375 L 167.378906 241.722656 L 158.496094 246.699219 L 154.058594 249.1875 L 145.175781 254.164062 L 140.738281 256.652344 L 143.269531 260.992188 L 145.945312 265.246094 L 148.765625 269.40625 L 151.726562 273.464844 L 154.824219 277.425781 L 158.054688 281.273438 L 161.414062 285.011719 L 164.898438 288.632812 L 168.503906 292.132812 L 172.226562 295.511719 L 176.0625 298.757812 L 180.003906 301.871094 L 184.050781 304.851562 L 188.199219 307.691406 L 192.441406 310.386719 L 196.769531 312.9375 L 201.183594 315.339844 L 205.679688 317.589844 L 210.246094 319.683594 L 214.882812 321.621094 L 219.582031 323.402344 L 224.339844 325.023438 L 229.148438 326.476562 L 234.007812 327.769531 L 238.90625 328.894531 L 243.839844 329.851562 L 248.800781 330.640625 L 253.789062 331.261719 L 258.792969 331.710938 L 263.8125 331.992188 L 268.835938 332.097656 L 273.863281 332.035156 L 278.882812 331.800781 L 283.890625 331.398438 L 288.882812 330.820312 L 293.851562 330.078125 L 298.796875 329.164062 L 303.703125 328.082031 L 308.570312 326.835938 L 313.394531 325.421875 L 318.167969 323.847656 L 322.882812 322.109375 L 327.535156 320.210938 L 332.121094 318.15625 L 336.636719 315.949219 L 341.070312 313.585938 L 345.425781 311.074219 L 349.691406 308.417969 L 353.863281 305.613281 L 357.9375 302.671875 L 361.90625 299.59375 L 365.773438 296.382812 L 369.527344 293.039062 L 373.164062 289.570312 L 376.679688 285.980469 L 380.070312 282.273438 L 383.335938 278.453125 L 386.46875 274.523438 L 389.464844 270.488281 L 392.324219 266.355469 L 395.039062 262.125 L 397.609375 257.808594 L 400.03125 253.402344 L 402.300781 248.917969 L 404.417969 244.359375 L 406.375 239.734375 L 408.175781 235.042969 L 409.816406 230.292969 L 411.292969 225.488281 L 412.609375 220.636719 L 413.753906 215.742188 L 414.734375 210.816406 L 415.546875 205.855469 L 416.1875 200.871094 L 416.660156 195.867188 L 416.964844 190.851562 L 417.09375 185.828125 L 417.054688 180.800781 L 416.84375 175.78125 L 416.460938 170.769531 L 415.90625 165.773438 L 415.183594 160.800781 L 414.292969 155.855469 L 413.234375 150.941406 L 412.007812 146.070312 L 410.617188 141.238281 L 409.0625 136.460938 L 407.347656 131.738281 L 405.472656 127.074219 L 403.4375 122.480469 L 401.25 117.957031 L 398.90625 113.507812 L 396.414062 109.144531 L 393.777344 104.867188 L 390.992188 100.683594 L 388.070312 96.597656 L 385.007812 92.609375 L 381.8125 88.730469 L 378.488281 84.964844 L 375.035156 81.3125 L 371.460938 77.777344 L 367.769531 74.367188 L 363.964844 71.085938 L 360.046875 67.9375 L 356.027344 64.921875 L 351.90625 62.046875 L 347.6875 59.3125 L 343.382812 56.722656 L 338.988281 54.28125 L 334.515625 51.992188 L 329.96875 49.855469 L 325.347656 47.875 L 320.664062 46.050781 L 315.921875 44.390625 L 311.125 42.890625 L 306.28125 41.554688 L 301.390625 40.386719 L 296.46875 39.382812 L 291.511719 38.550781 L 286.53125 37.886719 L 285.945312 42.941406 L 285.355469 47.996094 L 284.769531 53.054688 L 284.179688 58.109375 L 283.007812 68.21875 L 282.417969 73.277344 L 281.246094 83.386719 L 280.65625 88.441406 L 280.070312 93.5 L 279.484375 98.554688 L 278.894531 103.609375 L 278.308594 108.664062 L 277.722656 113.722656 L 277.132812 118.777344 L 275.960938 128.886719 L 275.371094 133.945312 L 274.199219 144.054688 L 273.609375 149.109375 L 273.023438 154.167969 L 272.4375 159.222656 L 271.847656 164.277344 L 271.261719 169.332031 L 270.675781 174.390625 L 270.085938 179.445312 Z M 269.5 184.5 "/>
<path style=" stroke:none;fill-rule:nonzero;fill:rgb(40.784314%,0%,81.960784%);fill-opacity:1;" d="M 269.5 184.5 L 270.085938 179.445312 L 270.675781 174.390625 L 271.261719 169.332031 L 271.847656 164.277344 L 272.4375 159.222656 L 273.023438 154.167969 L 273.609375 149.109375 L 274.199219 144.054688 L 275.371094 133.945312 L 275.960938 128.886719 L 277.132812 118.777344 L 277.722656 113.722656 L 278.308594 108.664062 L 278.894531 103.609375 L 279.484375 98.554688 L 280.070312 93.5 L 280.65625 88.441406 L 281.246094 83.386719 L 282.417969 73.277344 L 283.007812 68.21875 L 284.179688 58.109375 L 284.769531 53.054688 L 285.355469 47.996094 L 285.945312 42.941406 L 286.53125 37.886719 L 280.867188 37.339844 L 275.1875 37.007812 L 269.5 36.898438 Z M 269.5 184.5 "/>
</g>
</svg>
