<?xml version="1.0" encoding="UTF-8"?>
<svg xmlns="http://www.w3.org/2000/svg" xmlns:xlink="http://www.w3.org/1999/xlink" width="539pt" height="369pt" viewBox="0 0 539 369" version="1.1">
<g id="surface4630">
<rect x="0" y="0" width="539" height="369" style="fill:rgb(100%,100%,100%);fill-opacity:1;stroke:none;"/>
<path style=" stroke:none;fill-rule:nonzero;fill:rgb(97.254902%,46.27451%,42.745098%);fill-opacity:1;" d="M 269.5 184.5 L 269.5 36.898438 L 264.460938 36.984375 L 259.425781 37.246094 L 254.402344 37.675781 L 249.398438 38.277344 L 244.414062 39.046875 L 239.460938 39.988281 L 234.546875 41.097656 L 229.667969 42.375 L 224.839844 43.820312 L 220.058594 45.425781 L 215.339844 47.195312 L 210.683594 49.125 L 206.09375 51.214844 L 201.578125 53.457031 L 197.144531 55.851562 L 192.792969 58.398438 L 188.53125 61.089844 L 184.363281 63.929688 L 180.296875 66.90625 L 176.332031 70.019531 L 172.476562 73.269531 L 168.734375 76.648438 L 165.109375 80.152344 L 161.609375 83.777344 L 158.230469 87.519531 L 154.984375 91.375 L 151.871094 95.339844 L 148.894531 99.410156 L 146.058594 103.578125 L 143.367188 107.839844 L 140.824219 112.195312 L 138.429688 116.628906 L 136.1875 121.144531 L 134.101562 125.734375 L 132.175781 130.394531 L 130.40625 135.113281 L 128.800781 139.894531 L 127.359375 144.722656 L 126.085938 149.601562 L 124.976562 154.519531 L 124.039062 159.472656 L 123.269531 164.453125 L 122.667969 169.460938 L 122.242188 174.480469 L 121.984375 179.515625 L 121.898438 184.558594 L 121.988281 189.597656 L 122.25 194.632812 L 122.679688 199.65625 L 123.285156 204.660156 L 124.058594 209.640625 L 125 214.59375 L 126.113281 219.511719 L 127.390625 224.386719 L 128.835938 229.214844 L 130.445312 233.992188 L 132.21875 238.714844 L 134.148438 243.371094 L 136.238281 247.957031 L 138.484375 252.472656 L 140.878906 256.90625 L 143.429688 261.257812 L 146.121094 265.515625 L 148.960938 269.683594 L 151.941406 273.75 L 155.058594 277.710938 L 158.308594 281.566406 L 161.6875 285.308594 L 165.191406 288.929688 L 168.820312 292.429688 L 172.5625 295.804688 L 175.90625 291.96875 L 179.25 288.128906 L 182.589844 284.292969 L 185.933594 280.453125 L 189.277344 276.617188 L 192.621094 272.777344 L 195.960938 268.9375 L 199.304688 265.101562 L 202.648438 261.261719 L 205.988281 257.425781 L 209.332031 253.585938 L 212.675781 249.75 L 216.019531 245.910156 L 219.359375 242.070312 L 222.703125 238.234375 L 226.046875 234.394531 L 229.386719 230.558594 L 232.730469 226.71875 L 236.074219 222.882812 L 239.417969 219.042969 L 242.757812 215.207031 L 249.445312 207.527344 L 252.785156 203.691406 L 256.128906 199.851562 L 259.472656 196.015625 L 262.816406 192.175781 L 266.15625 188.339844 Z M 269.5 184.5 "/>
<path style=" stroke:none;fill-rule:nonzero;fill:rgb(0%,74.901961%,76.862745%);fill-opacity:1;" d="M 269.5 184.5 L 266.15625 188.339844 L 262.816406 192.175781 L 259.472656 196.015625 L 256.128906 199.851562 L 252.785156 203.691406 L 249.445312 207.527344 L 242.757812 215.207031 L 239.417969 219.042969 L 236.074219 222.882812 L 232.730469 226.71875 L 229.386719 230.558594 L 226.046875 234.394531 L 222.703125 238.234375 L 219.359375 242.070312 L 216.019531 245.910156 L 212.675781 249.75 L 209.332031 253.585938 L 205.988281 257.425781 L 202.648438 261.261719 L 199.304688 265.101562 L 195.960938 268.9375 L 192.621094 272.777344 L 189.277344 276.617188 L 185.933594 280.453125 L 182.589844 284.292969 L 179.25 288.128906 L 175.90625 291.96875 L 172.5625 295.804688 L 176.386719 299.023438 L 180.3125 302.109375 L 184.34375 305.058594 L 188.472656 307.871094 L 192.691406 310.542969 L 197 313.066406 L 201.394531 315.449219 L 205.863281 317.675781 L 210.40625 319.753906 L 215.015625 321.675781 L 219.6875 323.441406 L 224.417969 325.046875 L 229.199219 326.492188 L 234.027344 327.773438 L 238.894531 328.890625 L 243.800781 329.84375 L 248.730469 330.632812 L 253.6875 331.25 L 258.664062 331.703125 L 263.648438 331.984375 L 268.644531 332.097656 L 273.636719 332.042969 L 278.628906 331.816406 L 283.609375 331.425781 L 288.570312 330.863281 L 293.511719 330.132812 L 298.425781 329.238281 L 303.308594 328.175781 L 308.148438 326.949219 L 312.949219 325.5625 L 317.695312 324.007812 L 322.386719 322.300781 L 327.019531 320.429688 L 331.585938 318.40625 L 336.082031 316.230469 L 340.5 313.902344 L 344.839844 311.425781 L 349.089844 308.800781 L 353.25 306.039062 L 357.316406 303.132812 L 361.28125 300.09375 L 365.136719 296.921875 L 368.886719 293.621094 L 372.523438 290.199219 L 376.039062 286.652344 L 379.4375 282.988281 L 382.707031 279.210938 L 385.84375 275.328125 L 388.851562 271.339844 L 391.722656 267.25 L 394.453125 263.066406 L 397.039062 258.792969 L 399.480469 254.4375 L 401.773438 249.996094 L 403.914062 245.484375 L 405.898438 240.902344 L 407.730469 236.253906 L 409.402344 231.546875 L 410.914062 226.785156 L 412.261719 221.976562 L 413.449219 217.125 L 414.46875 212.234375 L 415.324219 207.316406 L 416.015625 202.367188 L 416.535156 197.398438 L 416.886719 192.417969 L 417.070312 187.425781 L 417.085938 182.429688 L 416.929688 177.4375 L 416.609375 172.453125 L 416.117188 167.484375 L 415.457031 162.53125 L 414.628906 157.605469 L 413.636719 152.710938 L 412.476562 147.851562 L 411.15625 143.035156 L 409.671875 138.265625 L 408.027344 133.546875 L 406.222656 128.890625 L 404.265625 124.296875 L 402.148438 119.769531 L 399.882812 115.320312 L 397.46875 110.949219 L 394.90625 106.660156 L 392.199219 102.460938 L 389.355469 98.355469 L 386.371094 94.351562 L 383.253906 90.445312 L 380.003906 86.652344 L 376.632812 82.96875 L 373.132812 79.402344 L 369.519531 75.957031 L 365.789062 72.632812 L 361.949219 69.4375 L 358.003906 66.378906 L 353.957031 63.449219 L 349.8125 60.660156 L 345.574219 58.015625 L 341.25 55.511719 L 336.847656 53.160156 L 332.363281 50.957031 L 327.808594 48.90625 L 323.1875 47.011719 L 318.503906 45.273438 L 313.765625 43.695312 L 308.976562 42.277344 L 304.140625 41.023438 L 299.265625 39.933594 L 294.355469 39.007812 L 289.417969 38.25 L 284.460938 37.660156 L 279.484375 37.238281 L 274.496094 36.984375 L 269.5 36.898438 Z M 269.5 184.5 "/>
</g>
</svg>
