<?xml version="1.0" encoding="UTF-8"?>
<svg xmlns="http://www.w3.org/2000/svg" xmlns:xlink="http://www.w3.org/1999/xlink" width="539pt" height="369pt" viewBox="0 0 539 369" version="1.1">
<g id="surface4638">
<rect x="0" y="0" width="539" height="369" style="fill:rgb(100%,100%,100%);fill-opacity:1;stroke:none;"/>
<path style=" stroke:none;fill-rule:nonzero;fill:rgb(97.254902%,46.27451%,42.745098%);fill-opacity:1;" d="M 269.5 184.5 L 269.5 36.898438 L 264.460938 36.984375 L 259.429688 37.242188 L 254.40625 37.671875 L 249.40625 38.273438 L 244.425781 39.046875 L 239.472656 39.988281 L 234.558594 41.09375 L 229.683594 42.371094 L 224.855469 43.8125 L 220.078125 45.421875 L 215.359375 47.1875 L 210.703125 49.117188 L 206.117188 51.203125 L 201.601562 53.445312 L 197.167969 55.839844 L 192.816406 58.382812 L 188.558594 61.074219 L 184.390625 63.910156 L 180.324219 66.882812 L 176.363281 69.996094 L 172.507812 73.242188 L 168.765625 76.617188 L 165.140625 80.121094 L 161.640625 83.742188 L 158.261719 87.484375 L 155.015625 91.339844 L 151.902344 95.300781 L 148.925781 99.367188 L 146.089844 103.53125 L 143.398438 107.792969 L 140.851562 112.140625 L 138.457031 116.574219 L 136.214844 121.089844 L 134.128906 125.675781 L 132.199219 130.332031 L 130.429688 135.050781 L 128.824219 139.824219 L 127.378906 144.652344 L 126.101562 149.527344 L 124.992188 154.445312 L 124.050781 159.394531 L 123.277344 164.375 L 122.675781 169.378906 L 122.246094 174.398438 L 121.988281 179.429688 L 121.898438 184.46875 L 121.984375 189.507812 L 122.242188 194.542969 L 122.671875 199.5625 L 123.269531 204.566406 L 124.039062 209.546875 L 124.980469 214.496094 L 126.089844 219.414062 L 127.363281 224.289062 L 128.804688 229.117188 L 130.410156 233.894531 L 132.175781 238.613281 L 134.105469 243.269531 L 136.191406 247.855469 L 140.785156 245.671875 L 149.980469 241.304688 L 154.578125 239.117188 L 159.175781 236.933594 L 163.769531 234.75 L 168.367188 232.5625 L 177.5625 228.195312 L 182.160156 226.007812 L 186.753906 223.824219 L 195.949219 219.457031 L 200.546875 217.269531 L 205.144531 215.085938 L 209.738281 212.902344 L 214.335938 210.714844 L 228.128906 204.164062 L 232.726562 201.976562 L 237.320312 199.792969 L 241.917969 197.609375 L 246.515625 195.421875 L 255.710938 191.054688 L 260.304688 188.871094 L 264.902344 186.683594 Z M 269.5 184.5 "/>
<path style=" stroke:none;fill-rule:nonzero;fill:rgb(0%,74.901961%,76.862745%);fill-opacity:1;" d="M 269.5 184.5 L 264.902344 186.683594 L 260.304688 188.871094 L 255.710938 191.054688 L 246.515625 195.421875 L 241.917969 197.609375 L 237.320312 199.792969 L 232.726562 201.976562 L 228.128906 204.164062 L 214.335938 210.714844 L 209.738281 212.902344 L 205.144531 215.085938 L 200.546875 217.269531 L 195.949219 219.457031 L 186.753906 223.824219 L 182.160156 226.007812 L 177.5625 228.195312 L 168.367188 232.5625 L 163.769531 234.75 L 159.175781 236.933594 L 154.578125 239.117188 L 149.980469 241.304688 L 140.785156 245.671875 L 136.191406 247.855469 L 138.414062 252.335938 L 140.785156 256.738281 L 143.304688 261.054688 L 145.972656 265.285156 L 148.777344 269.425781 L 151.722656 273.464844 L 154.804688 277.402344 L 158.019531 281.234375 L 161.359375 284.957031 L 164.824219 288.5625 L 168.410156 292.046875 L 172.109375 295.410156 L 175.921875 298.644531 L 179.84375 301.75 L 183.863281 304.71875 L 187.984375 307.550781 L 192.199219 310.238281 L 196.503906 312.785156 L 200.890625 315.183594 L 205.359375 317.433594 L 209.898438 319.53125 L 214.503906 321.472656 L 219.175781 323.257812 L 223.90625 324.882812 L 228.6875 326.34375 L 233.515625 327.644531 L 238.382812 328.78125 L 243.289062 329.753906 L 248.222656 330.558594 L 253.183594 331.195312 L 258.160156 331.664062 L 263.152344 331.964844 L 268.152344 332.09375 L 273.152344 332.054688 L 278.148438 331.847656 L 283.132812 331.46875 L 288.105469 330.921875 L 293.054688 330.207031 L 297.976562 329.328125 L 302.863281 328.28125 L 307.714844 327.066406 L 312.523438 325.691406 L 317.28125 324.152344 L 321.984375 322.453125 L 326.625 320.597656 L 331.203125 318.582031 L 335.710938 316.417969 L 340.140625 314.097656 L 344.488281 311.632812 L 348.753906 309.019531 L 352.925781 306.261719 L 357 303.367188 L 360.976562 300.335938 L 364.847656 297.167969 L 368.609375 293.875 L 372.257812 290.457031 L 375.789062 286.914062 L 379.195312 283.253906 L 382.476562 279.484375 L 385.628906 275.601562 L 388.648438 271.617188 L 391.53125 267.53125 L 394.273438 263.347656 L 396.875 259.078125 L 399.328125 254.71875 L 401.628906 250.28125 L 403.78125 245.769531 L 405.78125 241.183594 L 407.621094 236.535156 L 409.304688 231.828125 L 410.828125 227.066406 L 412.191406 222.253906 L 413.386719 217.398438 L 414.417969 212.507812 L 415.285156 207.582031 L 415.980469 202.628906 L 416.511719 197.65625 L 416.875 192.671875 L 417.066406 187.675781 L 417.089844 182.675781 L 416.941406 177.675781 L 416.625 172.6875 L 416.140625 167.707031 L 415.488281 162.75 L 414.667969 157.820312 L 413.679688 152.917969 L 412.527344 148.050781 L 411.210938 143.226562 L 409.734375 138.449219 L 408.09375 133.726562 L 406.292969 129.0625 L 404.335938 124.460938 L 402.226562 119.929688 L 399.960938 115.46875 L 397.550781 111.089844 L 394.988281 106.792969 L 392.285156 102.589844 L 389.441406 98.476562 L 386.457031 94.464844 L 383.339844 90.554688 L 380.09375 86.75 L 376.71875 83.0625 L 373.222656 79.488281 L 369.605469 76.035156 L 365.875 72.707031 L 362.03125 69.503906 L 358.082031 66.4375 L 354.035156 63.503906 L 349.886719 60.710938 L 345.648438 58.058594 L 341.320312 55.550781 L 336.910156 53.195312 L 332.425781 50.984375 L 327.867188 48.929688 L 323.242188 47.03125 L 318.554688 45.289062 L 313.808594 43.707031 L 309.015625 42.289062 L 304.175781 41.03125 L 299.296875 39.9375 L 294.382812 39.011719 L 289.441406 38.253906 L 284.476562 37.660156 L 279.492188 37.238281 L 274.5 36.984375 L 269.5 36.898438 Z M 269.5 184.5 "/>
</g>
</svg>
